<mxfile host="app.diagrams.net" modified="2023-06-19T14:47:46.881Z" agent="Mozilla/5.0 (Macintosh; Intel Mac OS X 10_15_7) AppleWebKit/605.1.15 (KHTML, like Gecko) Version/16.1 Safari/605.1.15" etag="iKsAkLLl7Mo2FW_MNWfy" version="21.5.0" type="github">
  <diagram id="C5RBs43oDa-KdzZeNtuy" name="Page-1">
    <mxGraphModel dx="763" dy="1739" grid="1" gridSize="10" guides="1" tooltips="1" connect="1" arrows="1" fold="1" page="1" pageScale="1" pageWidth="827" pageHeight="1169" math="0" shadow="0">
      <root>
        <mxCell id="WIyWlLk6GJQsqaUBKTNV-0" />
        <mxCell id="WIyWlLk6GJQsqaUBKTNV-1" parent="WIyWlLk6GJQsqaUBKTNV-0" />
        <mxCell id="oW4gRNKTt0ASqbm8ZPZX-3" value="" style="edgeStyle=orthogonalEdgeStyle;rounded=0;orthogonalLoop=1;jettySize=auto;html=1;" edge="1" parent="WIyWlLk6GJQsqaUBKTNV-1" source="oW4gRNKTt0ASqbm8ZPZX-1" target="oW4gRNKTt0ASqbm8ZPZX-2">
          <mxGeometry relative="1" as="geometry" />
        </mxCell>
        <mxCell id="oW4gRNKTt0ASqbm8ZPZX-1" value="Push current cell location to stack &lt;br&gt;FILO" style="rounded=1;whiteSpace=wrap;html=1;" vertex="1" parent="WIyWlLk6GJQsqaUBKTNV-1">
          <mxGeometry x="70" y="-1110" width="120" height="60" as="geometry" />
        </mxCell>
        <mxCell id="oW4gRNKTt0ASqbm8ZPZX-5" value="" style="edgeStyle=orthogonalEdgeStyle;rounded=0;orthogonalLoop=1;jettySize=auto;html=1;" edge="1" parent="WIyWlLk6GJQsqaUBKTNV-1" source="oW4gRNKTt0ASqbm8ZPZX-2" target="oW4gRNKTt0ASqbm8ZPZX-4">
          <mxGeometry relative="1" as="geometry" />
        </mxCell>
        <mxCell id="oW4gRNKTt0ASqbm8ZPZX-6" value="No" style="edgeLabel;html=1;align=center;verticalAlign=middle;resizable=0;points=[];" vertex="1" connectable="0" parent="oW4gRNKTt0ASqbm8ZPZX-5">
          <mxGeometry x="-0.3889" y="2" relative="1" as="geometry">
            <mxPoint as="offset" />
          </mxGeometry>
        </mxCell>
        <mxCell id="oW4gRNKTt0ASqbm8ZPZX-2" value="is stack empty?" style="rhombus;whiteSpace=wrap;html=1;rounded=1;" vertex="1" parent="WIyWlLk6GJQsqaUBKTNV-1">
          <mxGeometry x="90" y="-980" width="80" height="80" as="geometry" />
        </mxCell>
        <mxCell id="oW4gRNKTt0ASqbm8ZPZX-8" value="" style="edgeStyle=orthogonalEdgeStyle;rounded=0;orthogonalLoop=1;jettySize=auto;html=1;" edge="1" parent="WIyWlLk6GJQsqaUBKTNV-1" source="oW4gRNKTt0ASqbm8ZPZX-4" target="oW4gRNKTt0ASqbm8ZPZX-7">
          <mxGeometry relative="1" as="geometry" />
        </mxCell>
        <mxCell id="oW4gRNKTt0ASqbm8ZPZX-4" value="Pull cell location&lt;br&gt;(x,y)" style="whiteSpace=wrap;html=1;rounded=1;" vertex="1" parent="WIyWlLk6GJQsqaUBKTNV-1">
          <mxGeometry x="230" y="-970" width="120" height="60" as="geometry" />
        </mxCell>
        <mxCell id="oW4gRNKTt0ASqbm8ZPZX-10" value="" style="edgeStyle=orthogonalEdgeStyle;rounded=0;orthogonalLoop=1;jettySize=auto;html=1;" edge="1" parent="WIyWlLk6GJQsqaUBKTNV-1" source="oW4gRNKTt0ASqbm8ZPZX-7" target="oW4gRNKTt0ASqbm8ZPZX-9">
          <mxGeometry relative="1" as="geometry" />
        </mxCell>
        <mxCell id="oW4gRNKTt0ASqbm8ZPZX-7" value="md = minimum distance of open neighboring cells" style="whiteSpace=wrap;html=1;rounded=1;" vertex="1" parent="WIyWlLk6GJQsqaUBKTNV-1">
          <mxGeometry x="230" y="-870" width="120" height="60" as="geometry" />
        </mxCell>
        <mxCell id="oW4gRNKTt0ASqbm8ZPZX-12" value="" style="edgeStyle=orthogonalEdgeStyle;rounded=0;orthogonalLoop=1;jettySize=auto;html=1;" edge="1" parent="WIyWlLk6GJQsqaUBKTNV-1" source="oW4gRNKTt0ASqbm8ZPZX-9" target="oW4gRNKTt0ASqbm8ZPZX-11">
          <mxGeometry relative="1" as="geometry" />
        </mxCell>
        <mxCell id="oW4gRNKTt0ASqbm8ZPZX-18" value="No" style="edgeLabel;html=1;align=center;verticalAlign=middle;resizable=0;points=[];" vertex="1" connectable="0" parent="oW4gRNKTt0ASqbm8ZPZX-12">
          <mxGeometry x="-0.6867" y="2" relative="1" as="geometry">
            <mxPoint as="offset" />
          </mxGeometry>
        </mxCell>
        <mxCell id="oW4gRNKTt0ASqbm8ZPZX-16" style="edgeStyle=orthogonalEdgeStyle;rounded=0;orthogonalLoop=1;jettySize=auto;html=1;exitX=0;exitY=0.5;exitDx=0;exitDy=0;" edge="1" parent="WIyWlLk6GJQsqaUBKTNV-1" source="oW4gRNKTt0ASqbm8ZPZX-9">
          <mxGeometry relative="1" as="geometry">
            <mxPoint x="130" y="-900" as="targetPoint" />
          </mxGeometry>
        </mxCell>
        <mxCell id="oW4gRNKTt0ASqbm8ZPZX-17" value="Yes" style="edgeLabel;html=1;align=center;verticalAlign=middle;resizable=0;points=[];" vertex="1" connectable="0" parent="oW4gRNKTt0ASqbm8ZPZX-16">
          <mxGeometry x="-0.6154" relative="1" as="geometry">
            <mxPoint as="offset" />
          </mxGeometry>
        </mxCell>
        <mxCell id="oW4gRNKTt0ASqbm8ZPZX-9" value="distance(x,y) &lt;br&gt;= md +1?" style="rhombus;whiteSpace=wrap;html=1;rounded=1;" vertex="1" parent="WIyWlLk6GJQsqaUBKTNV-1">
          <mxGeometry x="222.5" y="-780" width="135" height="70" as="geometry" />
        </mxCell>
        <mxCell id="oW4gRNKTt0ASqbm8ZPZX-14" value="" style="edgeStyle=orthogonalEdgeStyle;rounded=0;orthogonalLoop=1;jettySize=auto;html=1;" edge="1" parent="WIyWlLk6GJQsqaUBKTNV-1" source="oW4gRNKTt0ASqbm8ZPZX-11" target="oW4gRNKTt0ASqbm8ZPZX-13">
          <mxGeometry relative="1" as="geometry" />
        </mxCell>
        <mxCell id="oW4gRNKTt0ASqbm8ZPZX-11" value="distance(x,y) = md+1" style="whiteSpace=wrap;html=1;rounded=1;" vertex="1" parent="WIyWlLk6GJQsqaUBKTNV-1">
          <mxGeometry x="230" y="-680" width="120" height="60" as="geometry" />
        </mxCell>
        <mxCell id="oW4gRNKTt0ASqbm8ZPZX-15" style="edgeStyle=orthogonalEdgeStyle;rounded=0;orthogonalLoop=1;jettySize=auto;html=1;" edge="1" parent="WIyWlLk6GJQsqaUBKTNV-1" source="oW4gRNKTt0ASqbm8ZPZX-13" target="oW4gRNKTt0ASqbm8ZPZX-2">
          <mxGeometry relative="1" as="geometry" />
        </mxCell>
        <mxCell id="oW4gRNKTt0ASqbm8ZPZX-13" value="push neighbors&#39; locations to stack" style="whiteSpace=wrap;html=1;rounded=1;" vertex="1" parent="WIyWlLk6GJQsqaUBKTNV-1">
          <mxGeometry x="230" y="-590" width="120" height="60" as="geometry" />
        </mxCell>
      </root>
    </mxGraphModel>
  </diagram>
</mxfile>
